<svg xmlns:xlink="http://www.w3.org/1999/xlink" xmlns="http://www.w3.org/2000/svg" class="header__logo--desktop" width="230"  height="26" ><defs><symbol id="logo-or" viewBox="0 0 230 26"><g fill="none"><path fill="#008830" d="M13.504 1.212a46.571 46.571 0 0 0-8.421-.72C1.478.573 0 .558 0 2.61c0 1.404.05 10.392.069 16.297a4.536 4.536 0 0 1 6.403 6.403c3.019-.197 6.323-.429 6.801-.448 1.768-.064 2.137-.419 2.167-1.862.044-2.463.197-16.13.27-18.395.075-2.266.277-2.935-2.206-3.393z"></path><circle cx="3.044" cy="22.35" r="2.793" fill="#1B1C20"></circle><path d="M36.731 17.13a11.13 11.13 0 0 1-.492 3.447 6.26 6.26 0 0 1-1.355 2.393 5.344 5.344 0 0 1-2.088 1.374 8.215 8.215 0 0 1-5.309 0 5.442 5.442 0 0 1-2.098-1.374 6.225 6.225 0 0 1-1.374-2.408 11.052 11.052 0 0 1-.493-3.448v-3.127a10.904 10.904 0 0 1 .493-3.447 6.343 6.343 0 0 1 1.379-2.409 5.418 5.418 0 0 1 2.083-1.374 8.289 8.289 0 0 1 5.314 0c.791.289 1.503.76 2.079 1.374a6.329 6.329 0 0 1 1.364 2.389c.346 1.116.512 2.28.492 3.447l.005 3.162zm-2.236 0v-3.143a9.85 9.85 0 0 0-.305-2.595 4.625 4.625 0 0 0-.852-1.764 3.369 3.369 0 0 0-1.345-.985 4.925 4.925 0 0 0-1.846-.32c-2.903 0-4.354 1.885-4.354 5.654v3.142a8.575 8.575 0 0 0 .522 3.246 3.67 3.67 0 0 0 1.477 1.837c.716.4 1.526.597 2.345.571 2.892.007 4.339-1.874 4.339-5.644h.02zm14.702 6.673a.61.61 0 0 1-.104.394.724.724 0 0 1-.409.177c-1.48.274-2.981.41-4.486.404a5.57 5.57 0 0 1-2.955-.734 4.383 4.383 0 0 1-1.773-2.103 8.16 8.16 0 0 1-.562-3.182v-1.748a9.028 9.028 0 0 1 .325-2.566c.191-.682.527-1.316.985-1.857a4.206 4.206 0 0 1 1.645-1.157 6.319 6.319 0 0 1 2.34-.399c.957-.005 1.914.08 2.856.251v-4.53a.458.458 0 0 1 .123-.35.443.443 0 0 1 .335-.138h1.241a.414.414 0 0 1 .32.133c.08.093.122.212.119.334v17.07zm-2.143-1.05v-9.672a9.584 9.584 0 0 0-1.275-.138c-.453-.02-.98-.03-1.581-.03-1.143 0-1.964.342-2.463 1.025-.499.683-.74 1.706-.724 3.068v1.749c0 1.395.24 2.436.72 3.122.479.686 1.3 1.03 2.462 1.03.7.003 1.653-.047 2.861-.148v-.005zm9.998.158a8.121 8.121 0 0 0 1.59-.152 11.663 11.663 0 0 0 1.523-.41c.495-.17.894-.314 1.196-.433a.414.414 0 0 1 .41 0 .37.37 0 0 1 .147.325v.985c0 .168-.113.316-.335.439a9.574 9.574 0 0 1-4.536 1.118 6.856 6.856 0 0 1-2.768-.542 4.29 4.29 0 0 1-2.004-1.847 6.816 6.816 0 0 1-.764-3.447v-2.202c0-1.763.475-3.154 1.424-4.171.949-1.018 2.28-1.527 3.994-1.527a5.787 5.787 0 0 1 2.955.694 4.388 4.388 0 0 1 1.817 1.97c.418.956.618 1.992.586 3.034v1.32c0 .358-.154.537-.463.537H53.66v.345c0 1.411.276 2.428.827 3.048.552.62 1.407.926 2.566.916zm3.073-5.95v-.216a5.876 5.876 0 0 0-.35-2.201 2.364 2.364 0 0 0-1.058-1.246 3.723 3.723 0 0 0-1.783-.38c-2.184 0-3.275 1.274-3.275 3.822v.227l6.466-.005zm14.79-.832v8.004a.453.453 0 0 1-.152.344.493.493 0 0 1-.335.143H73.26a.493.493 0 0 1-.492-.492v-7.999a5.216 5.216 0 0 0-.29-1.925 1.886 1.886 0 0 0-.917-1.025 3.674 3.674 0 0 0-1.625-.31 12.125 12.125 0 0 0-3.142.438v10.826c0 .272-.22.492-.493.492H65.11a.443.443 0 0 1-.32-.143.493.493 0 0 1-.142-.344V12.382a.557.557 0 0 1 .438-.582c1.64-.46 3.33-.716 5.033-.763a6.895 6.895 0 0 1 2.315.34 3.305 3.305 0 0 1 1.478.985c.368.458.629.994.763 1.566.17.721.25 1.46.241 2.201zm6.427 6.832c1.77 0 2.655-.62 2.655-1.857.01-.366-.127-.72-.38-.985a5.703 5.703 0 0 0-1.437-.95l-2.463-1.262a5.418 5.418 0 0 1-1.852-1.477 3.354 3.354 0 0 1-.635-2.059c-.034-.715.2-1.417.655-1.97a3.512 3.512 0 0 1 1.684-1.073 8.373 8.373 0 0 1 2.31-.296 9.215 9.215 0 0 1 1.97.217c.504.095.991.261 1.448.492.093.049.18.107.261.173a.345.345 0 0 1 .07.256v.985a.355.355 0 0 1-.149.315.443.443 0 0 1-.408 0 9.244 9.244 0 0 0-1.576-.433 8.648 8.648 0 0 0-1.61-.173 4.831 4.831 0 0 0-1.828.286c-.463.199-.74.677-.685 1.177-.008.389.133.766.394 1.054.375.37.81.673 1.286.896l2.418 1.236c.58.281 1.12.637 1.606 1.06.35.312.63.696.817 1.127.169.416.252.861.246 1.31a3.472 3.472 0 0 1-.62 2.098 3.635 3.635 0 0 1-1.7 1.261 6.944 6.944 0 0 1-2.462.409c-.7 0-1.398-.083-2.078-.246a7.388 7.388 0 0 1-1.576-.527c-.23-.119-.345-.265-.345-.439v-.985a.364.364 0 0 1 .153-.32.404.404 0 0 1 .404 0 9.436 9.436 0 0 0 3.427.7zm12.284-.05a8.121 8.121 0 0 0 1.59-.152 11.663 11.663 0 0 0 1.522-.41c.496-.17.895-.314 1.197-.433a.414.414 0 0 1 .409 0 .37.37 0 0 1 .147.325v.985c0 .168-.113.316-.334.439a9.574 9.574 0 0 1-4.536 1.118 6.856 6.856 0 0 1-2.768-.542 4.29 4.29 0 0 1-2.005-1.847 6.816 6.816 0 0 1-.763-3.447v-2.202c0-1.763.474-3.154 1.423-4.171.95-1.018 2.28-1.527 3.994-1.527a5.787 5.787 0 0 1 2.955.694 4.388 4.388 0 0 1 1.818 1.97c.417.956.618 1.992.586 3.034v1.32c0 .358-.154.537-.463.537h-8.166v.345c0 1.411.276 2.428.828 3.048.551.62 1.406.926 2.566.916zm3.073-5.95v-.216a5.876 5.876 0 0 0-.35-2.201 2.364 2.364 0 0 0-1.059-1.246 3.723 3.723 0 0 0-1.783-.38c-2.183 0-3.275 1.274-3.275 3.822v.227l6.467-.005zm23.123 7.334c0 .214-.104.32-.31.32h-1.562a.946.946 0 0 1-.374-.054.832.832 0 0 1-.266-.266l-4.354-7.26h-.63a90.68 90.68 0 0 1-2.69-.068v7.166a.493.493 0 0 1-.117.35.404.404 0 0 1-.32.137h-1.31a.409.409 0 0 1-.316-.138.493.493 0 0 1-.123-.35V7.059c0-.329.194-.508.581-.537a28.83 28.83 0 0 1 1.305-.104 38.05 38.05 0 0 1 1.69-.069h1.305c1.2-.026 2.398.14 3.546.493a4.763 4.763 0 0 1 2.398 1.684 4.98 4.98 0 0 1 .877 3.049v.177a4.836 4.836 0 0 1-1.04 3.201 5.28 5.28 0 0 1-2.777 1.714l4.433 7.417a.384.384 0 0 1 .054.212zm-2.867-12.544v-.177a3.211 3.211 0 0 0-.492-1.896 2.797 2.797 0 0 0-1.522-1.03 9.062 9.062 0 0 0-2.595-.31c-1.406 0-2.302.023-2.69.069v6.673c1.429.033 2.325.05 2.69.05a9.116 9.116 0 0 0 2.575-.306 2.778 2.778 0 0 0 1.508-1.034c.385-.61.569-1.324.526-2.044v.005zm9.747 11.16a8.121 8.121 0 0 0 1.591-.152 11.663 11.663 0 0 0 1.522-.41c.496-.17.895-.314 1.197-.433a.414.414 0 0 1 .408 0 .37.37 0 0 1 .148.325v.985c0 .168-.113.316-.335.439a9.574 9.574 0 0 1-4.536 1.118 6.856 6.856 0 0 1-2.768-.542 4.29 4.29 0 0 1-2.004-1.847 6.816 6.816 0 0 1-.764-3.447v-2.202c0-1.763.475-3.154 1.424-4.171.949-1.018 2.28-1.527 3.994-1.527a5.787 5.787 0 0 1 2.955.694 4.388 4.388 0 0 1 1.817 1.97c.418.956.618 1.992.587 3.034v1.32c0 .358-.155.537-.463.537h-8.166v.345c0 1.411.276 2.428.827 3.048.552.62 1.407.926 2.566.916zm3.073-5.95v-.216a5.876 5.876 0 0 0-.35-2.201 2.364 2.364 0 0 0-1.058-1.246 3.723 3.723 0 0 0-1.783-.38c-2.183 0-3.275 1.274-3.275 3.822v.227l6.466-.005zm14.79-.832v8.004a.453.453 0 0 1-.152.344.493.493 0 0 1-.335.143h-1.167a.493.493 0 0 1-.493-.492v-7.999a5.216 5.216 0 0 0-.29-1.925 1.886 1.886 0 0 0-.917-1.025 3.674 3.674 0 0 0-1.625-.31 12.125 12.125 0 0 0-3.142.438v10.826c0 .272-.22.492-.493.492h-1.191a.443.443 0 0 1-.32-.143.493.493 0 0 1-.143-.344V12.382a.557.557 0 0 1 .438-.582c1.64-.46 3.33-.716 5.033-.763a6.895 6.895 0 0 1 2.315.34 3.305 3.305 0 0 1 1.478.985c.368.458.629.994.763 1.566.17.721.25 1.46.241 2.201zm13.155 2.714c0 1.826-.466 3.272-1.399 4.34-.932 1.066-2.275 1.6-4.028 1.6-1.747 0-3.087-.534-4.02-1.6-.932-1.068-1.398-2.514-1.398-4.34v-1.857c0-1.832.466-3.281 1.399-4.348.932-1.067 2.272-1.601 4.019-1.601 1.753 0 3.096.534 4.028 1.6.933 1.068 1.4 2.517 1.4 4.35v1.856zm-2.142 0v-1.857a6.082 6.082 0 0 0-.35-2.181 2.861 2.861 0 0 0-1.083-1.4 3.27 3.27 0 0 0-1.852-.492 2.896 2.896 0 0 0-2.463 1.064 4.88 4.88 0 0 0-.807 3.005v1.856c0 2.712 1.091 4.068 3.275 4.068a2.92 2.92 0 0 0 2.462-1.059c.596-.884.883-1.94.818-3.004zm14.47-7.225c.009.059.009.119 0 .177L166.763 23.4a1.67 1.67 0 0 1-.788 1.074c-.444.223-.937.33-1.434.31a2.876 2.876 0 0 1-1.403-.306 1.743 1.743 0 0 1-.783-1.078l-3.276-11.579a.571.571 0 0 1 0-.177.414.414 0 0 1 .104-.296.364.364 0 0 1 .28-.108h1.345c.214 0 .368.154.463.463l2.734 10.594c.045.205.125.402.236.58a.335.335 0 0 0 .276.134.36.36 0 0 0 .285-.143c.113-.174.19-.368.227-.571l2.807-10.619c.095-.308.25-.463.463-.463h1.335a.38.38 0 0 1 .295.109c.076.08.118.185.119.295zm11.14 12.067a.493.493 0 0 1-.37.536c-.63.182-1.271.322-1.92.419-.728.1-1.462.148-2.197.143-1.897 0-3.26-.32-4.087-.96-.828-.64-1.235-1.662-1.222-3.064v-.217a3.97 3.97 0 0 1 .576-2.236 3.413 3.413 0 0 1 1.867-1.29 11.328 11.328 0 0 1 3.423-.424h1.807v-.985c0-1.014-.193-1.718-.58-2.112-.388-.394-1.063-.591-2.025-.591-.635-.009-1.27.04-1.896.147-.617.122-1.227.274-1.827.458a.493.493 0 0 1-.41 0 .32.32 0 0 1-.162-.295v-.956a.493.493 0 0 1 .345-.438 10.279 10.279 0 0 1 1.66-.517 9.668 9.668 0 0 1 2.29-.266c3.165 0 4.748 1.527 4.748 4.58l-.02 8.068zm-2.142-.798v-4.733h-1.808c-.618-.012-1.236.03-1.847.123a2.788 2.788 0 0 0-1.103.409 1.576 1.576 0 0 0-.581.719 3.054 3.054 0 0 0-.172 1.113v.216c-.021.473.07.944.265 1.375.214.374.569.648.985.758a6.21 6.21 0 0 0 1.936.236c.328 0 .642-.01.94-.03.3-.019.572-.045.818-.078.19-.023.38-.058.567-.103v-.005zm11.652 1.359c0 .24-.146.38-.438.419a10.87 10.87 0 0 1-1.581.118c-1.192 0-2.04-.225-2.546-.675-.506-.45-.76-1.313-.764-2.59v-8.506L183 12.75c-.308-.023-.462-.17-.462-.438v-.67c0-.286.154-.429.462-.429h2.37V8.821a.463.463 0 0 1 .428-.493l1.275-.192h.08a.34.34 0 0 1 .265.113c.07.08.107.185.104.291v2.664h2.63c.272 0 .492.22.492.493v.822a.453.453 0 0 1-.153.345.493.493 0 0 1-.334.143h-2.63v8.515c-.055.438.042.882.275 1.256.297.223.667.323 1.035.281h1.369c.328 0 .492.115.492.345v.842zm4.236-15.676a.463.463 0 0 1-.143.35.493.493 0 0 1-.345.137h-1.236a.493.493 0 0 1-.492-.492V6.629c-.001-.128.048-.252.137-.345a.463.463 0 0 1 .35-.143h1.236a.453.453 0 0 1 .493.493V8.57zm-.044 15.563a.463.463 0 0 1-.143.35.493.493 0 0 1-.345.137h-1.167a.493.493 0 0 1-.335-.143.453.453 0 0 1-.153-.344V11.702c0-.272.22-.493.493-.493h1.167a.453.453 0 0 1 .492.493l-.01 12.43zm13.4-5.29c0 1.826-.466 3.272-1.398 4.34-.933 1.066-2.275 1.6-4.029 1.6-1.747 0-3.086-.534-4.019-1.6-.932-1.068-1.398-2.514-1.398-4.34v-1.857c0-1.832.466-3.281 1.398-4.348.933-1.067 2.272-1.601 4.02-1.601 1.753 0 3.095.534 4.028 1.6.932 1.068 1.399 2.517 1.399 4.35v1.856zm-2.142 0v-1.857a6.082 6.082 0 0 0-.35-2.181 2.861 2.861 0 0 0-1.083-1.4 3.27 3.27 0 0 0-1.852-.492 2.896 2.896 0 0 0-2.462 1.064 4.88 4.88 0 0 0-.808 3.005v1.856c0 2.712 1.092 4.068 3.275 4.068a2.92 2.92 0 0 0 2.463-1.059c.595-.884.883-1.94.817-3.004zm14.721-2.714v8.004a.453.453 0 0 1-.152.344.493.493 0 0 1-.335.143h-1.168a.493.493 0 0 1-.492-.492v-7.999a5.216 5.216 0 0 0-.29-1.925 1.886 1.886 0 0 0-.917-1.025 3.674 3.674 0 0 0-1.625-.31c-1.057.006-2.108.15-3.127.429v10.835c0 .272-.22.492-.493.492h-1.192a.443.443 0 0 1-.32-.143.493.493 0 0 1-.143-.344V12.382a.557.557 0 0 1 .439-.582c1.64-.46 3.33-.716 5.033-.763a6.895 6.895 0 0 1 2.315.34 3.305 3.305 0 0 1 1.477.985c.368.457.629.99.764 1.561a9.14 9.14 0 0 1 .226 2.206zM229.3 16.194a.108.108 0 0 1-.034.083.123.123 0 0 1-.084.03h-.709a.118.118 0 0 1-.079-.035.148.148 0 0 1-.049-.078l-.315-1.266h-1.527l-.305 1.26a.153.153 0 0 1-.05.08.118.118 0 0 1-.078.034h-.704c-.031 0-.06-.01-.084-.03a.103.103 0 0 1-.035-.083l1.089-4.167a.985.985 0 0 1 1.847 0l1.088 4.167c.01-.002.02 0 .03.005zm-1.433-2.02l-.492-1.97a.197.197 0 0 0-.04-.083.099.099 0 0 0-.068 0 .094.094 0 0 0-.07 0 .202.202 0 0 0-.039.083l-.492 1.97h1.201zm-.822 9.742a.985.985 0 0 0 .606-.148.552.552 0 0 0 .177-.453.493.493 0 0 0-.113-.325 1.773 1.773 0 0 0-.439-.325l-.852-.502c-.18-.1-.346-.224-.492-.37a1.084 1.084 0 0 1-.241-.399 1.433 1.433 0 0 1-.07-.448c-.018-.35.123-.69.385-.926a1.842 1.842 0 0 1 1.231-.34c.22 0 .438.026.65.08.171.038.336.098.493.177.04.02.076.047.108.078a.138.138 0 0 1 .034.099v.448c0 .108-.054.143-.167.099a3.34 3.34 0 0 0-.517-.133 3.191 3.191 0 0 0-.596-.064c-.466 0-.7.154-.7.463a.374.374 0 0 0 .109.27c.133.118.278.22.433.306l.798.492c.201.114.385.255.547.419.12.122.214.268.276.428.054.159.08.325.079.493.001.237-.056.47-.168.68-.13.216-.322.388-.552.492-.308.142-.645.21-.985.197a2.778 2.778 0 0 1-.748-.094 2.192 2.192 0 0 1-.493-.172.576.576 0 0 1-.123-.084.133.133 0 0 1-.03-.093v-.453c0-.104.055-.133.168-.099.384.131.786.2 1.192.207z" fill="#1B1C20"></path></g></symbol></defs><use xmlns:xlink="http://www.w3.org/1999/xlink" xlink:href="#logo-or" fill="#FFFFFF"></use></svg>