<svg xmlns:xlink="http://www.w3.org/1999/xlink" xmlns="http://www.w3.org/2000/svg" class="header__logo--mobile" width="111" height="30"><defs><symbol id="a" viewBox="0 0 105 29"><g fill="none"><path d="M31.987 8.822a7.503 7.503 0 0 1-.327 2.307 4.197 4.197 0 0 1-.9 1.601 3.55 3.55 0 0 1-1.386.92 5.421 5.421 0 0 1-3.527 0 3.615 3.615 0 0 1-1.393-.92 4.174 4.174 0 0 1-.903-1.615 7.446 7.446 0 0 1-.327-2.306v-2.09a7.347 7.347 0 0 1 .327-2.307 4.252 4.252 0 0 1 .916-1.611 3.596 3.596 0 0 1 1.374-.91 5.466 5.466 0 0 1 3.53 0 3.57 3.57 0 0 1 1.376.923c.415.46.724 1.005.907 1.598.23.747.34 1.526.327 2.307l.006 2.103zm-1.485 0V6.719a6.638 6.638 0 0 0-.203-1.736 3.104 3.104 0 0 0-.566-1.18 2.238 2.238 0 0 0-.893-.66 3.25 3.25 0 0 0-1.226-.214c-1.928 0-2.892 1.262-2.892 3.784v2.102a5.78 5.78 0 0 0 .347 2.172c.184.507.529.94.981 1.23a2.995 2.995 0 0 0 1.557.381c1.93.005 2.895-1.254 2.895-3.776zm9.76 4.468a.408.408 0 0 1-.068.264.476.476 0 0 1-.271.119 15.93 15.93 0 0 1-2.98.27 3.678 3.678 0 0 1-1.963-.491 2.93 2.93 0 0 1-1.177-1.407 5.497 5.497 0 0 1-.383-2.136V8.743c-.01-.58.065-1.159.22-1.717.126-.457.349-.88.653-1.243.3-.343.678-.608 1.103-.77a4.169 4.169 0 0 1 1.553-.268 10.22 10.22 0 0 1 1.898.168V1.878a.293.293 0 0 1 .3-.323h.821c.08-.003.159.03.213.09a.33.33 0 0 1 .079.223l.003 11.422zm-1.422-.702V6.116a6.34 6.34 0 0 0-.847-.092c-.301-.013-.651-.02-1.05-.02-.76 0-1.304.229-1.636.686-.331.457-.491 1.14-.48 2.053v1.17c0 .933.159 1.63.477 2.089.318.459.864.689 1.636.689.466.002 1.1-.032 1.9-.103zm6.627.106c.355 0 .709-.033 1.057-.102.342-.068.68-.16 1.01-.274.33-.114.595-.21.795-.29a.273.273 0 0 1 .272 0 .25.25 0 0 1 .098.218v.659c0 .112-.075.21-.223.293-.926.495-1.96.75-3.009.745a4.524 4.524 0 0 1-1.838-.363 2.86 2.86 0 0 1-1.332-1.235 4.592 4.592 0 0 1-.507-2.307v-1.47c0-1.18.316-2.11.946-2.791.63-.681 1.514-1.022 2.653-1.022a3.82 3.82 0 0 1 1.962.465c.53.302.951.763 1.207 1.318a4.74 4.74 0 0 1 .403 2.03v.883c0 .24-.103.36-.308.36H43.23v.23c0 .945.183 1.625.55 2.04.366.415.928.62 1.687.613zm2.041-3.981v-.145a3.958 3.958 0 0 0-.232-1.473 1.58 1.58 0 0 0-.687-.834 2.457 2.457 0 0 0-1.184-.254c-1.45 0-2.175.853-2.175 2.558v.151l4.278-.003zm9.84-.56v5.358a.304.304 0 0 1-.102.23.326.326 0 0 1-.222.096h-.763a.328.328 0 0 1-.327-.33V8.154a3.514 3.514 0 0 0-.193-1.292 1.259 1.259 0 0 0-.608-.686 2.424 2.424 0 0 0-1.08-.207 7.998 7.998 0 0 0-2.086.293v7.25a.33.33 0 0 1-.327.33h-.792a.293.293 0 0 1-.213-.096.33.33 0 0 1-.095-.23v-7.87a.372.372 0 0 1 .292-.389 13.725 13.725 0 0 1 3.336-.51 4.548 4.548 0 0 1 1.537.227c.381.125.72.353.982.659.244.307.417.665.507 1.048.11.483.162.977.153 1.473zm4.268 4.57c1.176 0 1.763-.414 1.763-1.242a.923.923 0 0 0-.252-.659 3.773 3.773 0 0 0-.955-.636l-1.635-.844a3.603 3.603 0 0 1-1.23-.988 2.256 2.256 0 0 1-.429-1.388 1.937 1.937 0 0 1 .435-1.318c.3-.34.69-.584 1.126-.705a5.522 5.522 0 0 1 1.534-.198c.44.001.878.05 1.308.145.334.064.658.175.962.33.061.032.12.07.173.115.037.049.054.11.046.172v.659a.238.238 0 0 1-.098.21.292.292 0 0 1-.272 0 6.104 6.104 0 0 0-1.046-.29 5.703 5.703 0 0 0-1.07-.115 3.187 3.187 0 0 0-1.214.191.765.765 0 0 0-.454.788c-.006.26.088.513.261.705.25.247.538.45.854.6l1.606.827c.385.188.744.426 1.067.709.233.209.418.466.543.754.112.279.167.577.163.877a2.34 2.34 0 0 1-.412 1.407 2.416 2.416 0 0 1-1.129.844 4.585 4.585 0 0 1-1.635.273c-.465 0-.928-.055-1.38-.165a4.882 4.882 0 0 1-1.047-.356c-.153-.079-.23-.176-.23-.293v-.659a.245.245 0 0 1 .102-.214.267.267 0 0 1 .269 0 6.227 6.227 0 0 0 2.276.465zm8.158-.03c.355.002.709-.032 1.057-.101.342-.068.68-.16 1.01-.274.33-.114.595-.21.795-.29a.273.273 0 0 1 .272 0 .25.25 0 0 1 .098.218v.659c0 .112-.075.21-.223.293a6.318 6.318 0 0 1-3.012.748 4.524 4.524 0 0 1-1.838-.362 2.86 2.86 0 0 1-1.332-1.236 4.592 4.592 0 0 1-.507-2.307V8.568c0-1.18.315-2.11.946-2.791.63-.681 1.514-1.022 2.652-1.022a3.82 3.82 0 0 1 1.963.465c.529.302.95.763 1.207 1.318.277.64.41 1.333.39 2.03v.883c0 .24-.103.36-.308.36H67.52v.23c0 .945.184 1.625.55 2.04.366.415.934.62 1.704.613zm2.041-3.98v-.145a3.958 3.958 0 0 0-.232-1.473 1.579 1.579 0 0 0-.703-.834 2.457 2.457 0 0 0-1.184-.254c-1.45 0-2.176.853-2.176 2.558v.151l4.295-.003zM31.696 28.446c0 .143-.069.214-.206.214h-1.037a.617.617 0 0 1-.249-.036.552.552 0 0 1-.176-.178l-2.879-4.857h-.435c-.327 0-.922-.016-1.786-.046v4.798a.331.331 0 0 1-.078.234.267.267 0 0 1-.213.092h-.87a.27.27 0 0 1-.216-.096.331.331 0 0 1-.082-.234V16.915c0-.22.13-.339.386-.359a25.076 25.076 0 0 1 1.986-.115h.867a7.432 7.432 0 0 1 2.355.33 3.163 3.163 0 0 1 1.593 1.126 3.35 3.35 0 0 1 .582 2.04v.119a3.249 3.249 0 0 1-.69 2.142c-.48.569-1.125.97-1.845 1.147l2.944 4.96c.03.04.047.09.05.141zm-1.907-8.393v-.119c.025-.447-.09-.89-.327-1.269a1.86 1.86 0 0 0-1.01-.688 5.986 5.986 0 0 0-1.725-.208c-.933 0-1.528.016-1.786.05v4.465c.949.022 1.544.033 1.786.033a6.019 6.019 0 0 0 1.711-.205c.402-.11.755-.354 1.001-.692a2.32 2.32 0 0 0 .35-1.367zm6.477 7.47c.354.001.708-.033 1.056-.102.343-.068.68-.16 1.011-.273.33-.114.594-.211.795-.29a.273.273 0 0 1 .271 0c.068.05.105.133.098.217v.66c0 .111-.075.21-.222.293a6.318 6.318 0 0 1-3.013.748 4.517 4.517 0 0 1-1.838-.363 2.857 2.857 0 0 1-1.331-1.236 4.592 4.592 0 0 1-.507-2.306v-1.473c0-1.178.315-2.108.945-2.792.63-.683 1.515-1.025 2.653-1.025a3.82 3.82 0 0 1 1.963.465c.528.302.95.763 1.207 1.318.277.64.41 1.335.389 2.034v.883c0 .24-.103.359-.308.359h-5.417v.23c0 .945.184 1.625.55 2.04.366.416.932.62 1.698.613zm2.04-3.98v-.145a3.958 3.958 0 0 0-.231-1.474 1.579 1.579 0 0 0-.704-.833 2.457 2.457 0 0 0-1.184-.254c-1.446-.002-2.169.851-2.169 2.56v.152l4.289-.006zm9.824-.56v5.358a.304.304 0 0 1-.102.23.326.326 0 0 1-.222.096h-.775a.328.328 0 0 1-.327-.33v-5.355a3.514 3.514 0 0 0-.193-1.292 1.259 1.259 0 0 0-.609-.685 2.428 2.428 0 0 0-1.08-.208 7.991 7.991 0 0 0-2.086.294v7.25a.33.33 0 0 1-.327.33h-.792a.293.293 0 0 1-.213-.096.33.33 0 0 1-.094-.231v-7.87a.372.372 0 0 1 .29-.388c1.09-.308 2.213-.48 3.344-.511a4.548 4.548 0 0 1 1.537.227c.38.125.72.353.981.66.245.306.418.664.507 1.047.113.483.167.978.16 1.473zm8.733 1.815c0 1.222-.31 2.19-.929 2.903-.619.714-1.51 1.071-2.675 1.071-1.16 0-2.05-.357-2.67-1.07-.619-.715-.928-1.682-.928-2.904v-1.242c0-1.226.31-2.196.929-2.91s1.509-1.071 2.669-1.071c1.164 0 2.056.357 2.675 1.07.62.715.93 1.685.93 2.91v1.243zm-1.423 0v-1.242a4.098 4.098 0 0 0-.232-1.463 1.913 1.913 0 0 0-.72-.936 2.16 2.16 0 0 0-1.23-.33 1.92 1.92 0 0 0-1.635.712 3.278 3.278 0 0 0-.536 2.01v1.243c0 1.814.725 2.723 2.175 2.725a1.933 1.933 0 0 0 1.635-.709 3.264 3.264 0 0 0 .543-2.01zm9.614-4.834a.389.389 0 0 1 0 .118l-2.182 7.764c-.065.3-.25.558-.51.716-.295.15-.622.22-.952.207a1.902 1.902 0 0 1-.932-.204 1.17 1.17 0 0 1-.52-.722l-2.182-7.764a.385.385 0 0 1 0-.119.278.278 0 0 1 .069-.197.241.241 0 0 1 .186-.073h.847c.142 0 .245.103.308.31l1.858 7.105c.03.138.083.269.157.389.043.057.111.09.183.089a.238.238 0 0 0 .19-.096 1.05 1.05 0 0 0 .15-.382L63.59 20c.063-.207.165-.31.307-.31h.887a.25.25 0 0 1 .196.073c.05.054.076.126.075.2zm7.4 8.077a.33.33 0 0 1-.246.359 9.75 9.75 0 0 1-1.276.28c-.483.067-.97.1-1.459.096-1.26 0-2.165-.214-2.715-.643-.55-.428-.825-1.112-.827-2.05v-.145a2.672 2.672 0 0 1 .382-1.496 2.268 2.268 0 0 1 1.24-.863 7.451 7.451 0 0 1 2.273-.284h1.2v-.659c0-.679-.128-1.15-.385-1.413-.257-.264-.706-.396-1.344-.396a6.884 6.884 0 0 0-1.26.099c-.41.081-.814.183-1.213.306a.325.325 0 0 1-.272 0 .215.215 0 0 1-.108-.197v-.64a.33.33 0 0 1 .23-.293 6.757 6.757 0 0 1 1.102-.346 6.376 6.376 0 0 1 1.52-.178c2.103 0 3.154 1.022 3.154 3.065l.003 5.398zm-1.424-.534v-3.17h-1.2c-.41-.008-.821.02-1.227.082-.26.038-.51.131-.733.274a1.053 1.053 0 0 0-.386.48 2.054 2.054 0 0 0-.114.746v.141c-.014.316.047.631.177.92.142.25.377.43.654.504.417.12.851.174 1.285.158a9.438 9.438 0 0 0 1.168-.072 3.39 3.39 0 0 0 .376-.063zm7.74.906c0 .16-.098.254-.292.28a7.167 7.167 0 0 1-1.05.08c-.791 0-1.355-.151-1.69-.452-.337-.301-.505-.878-.505-1.73v-5.695l-1.573-.174c-.205-.016-.307-.114-.307-.294v-.448c0-.191.102-.287.307-.287h1.573v-1.598a.309.309 0 0 1 .285-.33l.847-.128h.046a.228.228 0 0 1 .177.076c.046.054.07.123.068.194v1.783h1.747a.33.33 0 0 1 .327.33v.55a.304.304 0 0 1-.101.23.326.326 0 0 1-.223.096H76.66v5.695c-.037.293.028.59.183.84a.956.956 0 0 0 .687.188h.91c.217 0 .326.077.326.23l.003.564zm2.813-10.486a.311.311 0 0 1-.095.234.326.326 0 0 1-.23.092h-.82a.328.328 0 0 1-.327-.33V16.63a.33.33 0 0 1 .091-.231.306.306 0 0 1 .232-.096h.821a.3.3 0 0 1 .24.088.304.304 0 0 1 .088.242v1.295zm-.033 10.414a.33.33 0 0 1-.095.234.326.326 0 0 1-.229.092h-.759a.326.326 0 0 1-.222-.096.304.304 0 0 1-.105-.23V20.02c0-.182.146-.33.327-.33h.775a.3.3 0 0 1 .24.088.304.304 0 0 1 .087.242l-.02 8.32zm8.904-3.543c0 1.222-.31 2.19-.93 2.903-.619.714-1.51 1.071-2.675 1.071-1.16 0-2.05-.357-2.67-1.07-.619-.715-.928-1.682-.928-2.904v-1.242c0-1.226.31-2.196.929-2.91s1.509-1.071 2.669-1.071c1.164 0 2.056.357 2.676 1.07.619.715.929 1.685.929 2.91v1.243zm-1.423 0v-1.242a4.098 4.098 0 0 0-.233-1.463 1.913 1.913 0 0 0-.72-.936 2.16 2.16 0 0 0-1.23-.33 1.92 1.92 0 0 0-1.635.712 3.285 3.285 0 0 0-.536 2.01v1.243c0 1.814.725 2.723 2.175 2.725a1.933 1.933 0 0 0 1.636-.709 3.264 3.264 0 0 0 .543-2.01zm9.777-1.816v5.359a.304.304 0 0 1-.102.23.326.326 0 0 1-.222.096h-.775a.328.328 0 0 1-.327-.33v-5.355a3.514 3.514 0 0 0-.193-1.292 1.259 1.259 0 0 0-.609-.685 2.428 2.428 0 0 0-1.08-.208 7.991 7.991 0 0 0-2.086.294v7.25a.33.33 0 0 1-.327.33h-.792a.293.293 0 0 1-.212-.096.33.33 0 0 1-.095-.231v-7.87a.372.372 0 0 1 .29-.388c1.09-.308 2.213-.48 3.344-.511a4.548 4.548 0 0 1 1.537.227c.38.125.72.353.981.66.245.306.418.664.507 1.047.113.483.167.978.16 1.473zm5.754.01a.07.07 0 0 1-.023.056.078.078 0 0 1-.056.02h-.464a.078.078 0 0 1-.053-.023.102.102 0 0 1-.032-.053l-.203-.843h-1.02l-.204.843a.099.099 0 0 1-.032.053.078.078 0 0 1-.053.023h-.464a.081.081 0 0 1-.056-.02.073.073 0 0 1-.023-.056l.723-2.788a.654.654 0 0 1 1.227 0l.723 2.788h.01zm-.952-1.35-.327-1.319a.136.136 0 0 0-.026-.056.065.065 0 0 0-.046 0 .062.062 0 0 0-.043 0 .132.132 0 0 0-.026.056l-.327 1.318h.795zm-.53 6.518a.65.65 0 0 0 .402-.1.374.374 0 0 0 .118-.302.331.331 0 0 0-.075-.218 1.188 1.188 0 0 0-.291-.217l-.583-.353a1.45 1.45 0 0 1-.327-.247.723.723 0 0 1-.16-.267.956.956 0 0 1-.046-.3.784.784 0 0 1 .265-.616c.237-.172.527-.253.818-.228a1.728 1.728 0 0 1 .759.172c.026.014.05.032.072.052a.093.093 0 0 1 .023.066v.3c0 .073-.036.096-.112.066a2.214 2.214 0 0 0-.343-.089 2.108 2.108 0 0 0-.4-.043c-.309 0-.464.104-.464.31a.251.251 0 0 0 .072.181c.089.079.185.147.288.205l.53.33c.133.075.256.17.363.28.08.081.143.179.183.286a.995.995 0 0 1 .053.33.958.958 0 0 1-.111.454.83.83 0 0 1-.367.33c-.205.095-.429.14-.654.132a1.835 1.835 0 0 1-.497-.063 1.442 1.442 0 0 1-.327-.115.38.38 0 0 1-.082-.056.093.093 0 0 1-.02-.063v-.303c0-.068.037-.09.112-.066.257.093.527.144.8.152z" fill="#1B1C20"/><path fill="#008830" d="M15.462 1.157A52.949 52.949 0 0 0 5.82.33C1.678.419 0 .402 0 2.775 0 4.393.056 14.76.082 21.559a5.174 5.174 0 0 1 7.355.031A5.267 5.267 0 0 1 7.406 29c3.457-.227 7.238-.498 7.785-.517 2.024-.073 2.45-.485 2.48-2.146.051-2.857.225-18.603.31-21.216.085-2.613.32-3.43-2.519-3.964z"/><ellipse cx="3.484" cy="25.54" fill="#1B1C20" rx="3.196" ry="3.22"/></g></symbol></defs><use xmlns:xlink="http://www.w3.org/1999/xlink" xlink:href="#a" fill="#FFF"/></svg>